<svg xmlns="http://www.w3.org/2000/svg" width="1170.2384033203125" height="1121.771240234375" viewBox="-573.2267456054688 -576.0693969726562 1170.2384033203125 1121.771240234375"><title>Neo4j Graph Visualization</title><desc>Created using Neo4j (http://www.neo4j.com/)</desc><g class="layer relationships"><g class="relationship" transform="translate(70.8499052272394 336.57589078638165) rotate(449.0378454740677)"><path class="b-outline" fill="#A5ABB6" stroke="none" d="M 25 0.5 L 41.226766041152345 0.5 L 41.226766041152345 -0.5 L 25 -0.5 Z M 96.87129729115235 0.5 L 113.09806333230469 0.5 L 113.09806333230469 3.5 L 120.09806333230469 0 L 113.09806333230469 -3.5 L 113.09806333230469 -0.5 L 96.87129729115235 -0.5 Z"/><text text-anchor="middle" pointer-events="none" font-size="8px" fill="#000000" x="69.04903166615235" y="3" font-family="Helvetica Neue, Helvetica, Arial, sans-serif">LOCATED_IN</text></g><g class="relationship" transform="translate(70.8499052272394 336.57589078638165) rotate(274.9376525724363)"><path class="b-outline" fill="#A5ABB6" stroke="none" d="M 25 0.5 L 26.148703210940354 0.5 L 26.148703210940354 -0.5 L 25 -0.5 Z M 111.27370321094035 0.5 L 112.42240642188071 0.5 L 112.42240642188071 3.5 L 119.42240642188071 0 L 112.42240642188071 -3.5 L 112.42240642188071 -0.5 L 111.27370321094035 -0.5 Z"/><text text-anchor="middle" pointer-events="none" font-size="8px" fill="#000000" x="68.71120321094035" y="3" font-family="Helvetica Neue, Helvetica, Arial, sans-serif">HAS_MAINTENANCE</text></g><g class="relationship" transform="translate(287.52728397302445 516.7018662463755) rotate(267.46241609671824)"><path class="b-outline" fill="#A5ABB6" stroke="none" d="M 25 0.5 L 39.72064895439951 0.5 L 39.72064895439951 -0.5 L 25 -0.5 Z M 95.36518020439951 0.5 L 110.08582915879902 0.5 L 110.08582915879902 3.5 L 117.08582915879902 0 L 110.08582915879902 -3.5 L 110.08582915879902 -0.5 L 95.36518020439951 -0.5 Z"/><text text-anchor="middle" pointer-events="none" font-size="8px" fill="#000000" x="67.54291457939951" y="3" transform="rotate(180 67.54291457939951 0)" font-family="Helvetica Neue, Helvetica, Arial, sans-serif">LOCATED_IN</text></g><g class="relationship" transform="translate(445.7571736288536 275.06462053866244) rotate(328.9314487536509)"><path class="b-outline" fill="#A5ABB6" stroke="none" d="M 25 0.5 L 25.3019011829506 0.5 L 25.3019011829506 -0.5 L 25 -0.5 Z M 110.4269011829506 0.5 L 110.7288023659012 0.5 L 110.7288023659012 3.5 L 117.7288023659012 0 L 110.7288023659012 -3.5 L 110.7288023659012 -0.5 L 110.4269011829506 -0.5 Z"/><text text-anchor="middle" pointer-events="none" font-size="8px" fill="#000000" x="67.8644011829506" y="3" font-family="Helvetica Neue, Helvetica, Arial, sans-serif">HAS_MAINTENANCE</text></g><g class="relationship" transform="translate(306.5863961114761 80.16491310144849) rotate(347.9319655224365)"><path class="b-outline" fill="#A5ABB6" stroke="none" d="M 25 0.5 L 39.44468417451162 0.5 L 39.44468417451162 -0.5 L 25 -0.5 Z M 95.08921542451162 0.5 L 109.53389959902324 0.5 L 109.53389959902324 3.5 L 116.53389959902324 0 L 109.53389959902324 -3.5 L 109.53389959902324 -0.5 L 95.08921542451162 -0.5 Z"/><text text-anchor="middle" pointer-events="none" font-size="8px" fill="#000000" x="67.26694979951162" y="3" font-family="Helvetica Neue, Helvetica, Arial, sans-serif">LOCATED_IN</text></g><g class="relationship" transform="translate(306.5863961114761 80.16491310144849) rotate(308.9872845588382)"><path class="b-outline" fill="#A5ABB6" stroke="none" d="M 25 0.5 L 31.397998888355772 0.5 L 31.397998888355772 -0.5 L 25 -0.5 Z M 116.52299888835577 0.5 L 122.92099777671154 0.5 L 122.92099777671154 3.5 L 129.92099777671154 0 L 122.92099777671154 -3.5 L 122.92099777671154 -0.5 L 116.52299888835577 -0.5 Z"/><text text-anchor="middle" pointer-events="none" font-size="8px" fill="#000000" x="73.96049888835577" y="3" font-family="Helvetica Neue, Helvetica, Arial, sans-serif">HAS_MAINTENANCE</text></g><g class="relationship" transform="translate(306.8741618880595 -19.461189759064474) rotate(386.8880560309549)"><path class="b-outline" fill="#A5ABB6" stroke="none" d="M 25 0.5 L 46.10766206250595 0.5 L 46.10766206250595 -0.5 L 25 -0.5 Z M 101.75219331250595 0.5 L 122.8598553750119 0.5 L 122.8598553750119 3.5 L 129.8598553750119 0 L 122.8598553750119 -3.5 L 122.8598553750119 -0.5 L 101.75219331250595 -0.5 Z"/><text text-anchor="middle" pointer-events="none" font-size="8px" fill="#000000" x="73.92992768750595" y="3" font-family="Helvetica Neue, Helvetica, Arial, sans-serif">LOCATED_IN</text></g><g class="relationship" transform="translate(484.72184074211697 -268.4453784820476) rotate(240.9965976551316)"><path class="b-outline" fill="#A5ABB6" stroke="none" d="M 25 0.5 L 25.012642863739714 0.5 L 25.012642863739714 -0.5 L 25 -0.5 Z M 110.13764286373971 0.5 L 110.15028572747943 0.5 L 110.15028572747943 3.5 L 117.15028572747943 0 L 110.15028572747943 -3.5 L 110.15028572747943 -0.5 L 110.13764286373971 -0.5 Z"/><text text-anchor="middle" pointer-events="none" font-size="8px" fill="#000000" x="67.57514286373971" y="3" transform="rotate(180 67.57514286373971 0)" font-family="Helvetica Neue, Helvetica, Arial, sans-serif">HAS_MAINTENANCE</text></g><g class="relationship" transform="translate(201.29410245142276 -272.66999698077194) rotate(278.4742457289258)"><path class="b-outline" fill="#A5ABB6" stroke="none" d="M 25 0.5 L 40.81787393867717 0.5 L 40.81787393867717 -0.5 L 25 -0.5 Z M 96.46240518867717 0.5 L 112.28027912735433 0.5 L 112.28027912735433 3.5 L 119.28027912735433 0 L 112.28027912735433 -3.5 L 112.28027912735433 -0.5 L 96.46240518867717 -0.5 Z"/><text text-anchor="middle" pointer-events="none" font-size="8px" fill="#000000" x="68.64013956367717" y="3" font-family="Helvetica Neue, Helvetica, Arial, sans-serif">LOCATED_IN</text></g><g class="relationship" transform="translate(165.49244384206418 -547.069372519696) rotate(426.57278697432776)"><path class="b-outline" fill="#A5ABB6" stroke="none" d="M 25 0.5 L 40.44060177258869 0.5 L 40.44060177258869 -0.5 L 25 -0.5 Z M 96.08513302258869 0.5 L 111.52573479517739 0.5 L 111.52573479517739 3.5 L 118.52573479517739 0 L 111.52573479517739 -3.5 L 111.52573479517739 -0.5 L 96.08513302258869 -0.5 Z"/><text text-anchor="middle" pointer-events="none" font-size="8px" fill="#000000" x="68.26286739758869" y="3" font-family="Helvetica Neue, Helvetica, Arial, sans-serif">LOCATED_IN</text></g><g class="relationship" transform="translate(-6.7952818264714026 -246.54942246562877) rotate(281.2784948147564)"><path class="b-outline" fill="#A5ABB6" stroke="none" d="M 25 0.5 L 27.1108516336772 0.5 L 27.1108516336772 -0.5 L 25 -0.5 Z M 112.2358516336772 0.5 L 114.3467032673544 0.5 L 114.3467032673544 3.5 L 121.3467032673544 0 L 114.3467032673544 -3.5 L 114.3467032673544 -0.5 L 112.2358516336772 -0.5 Z"/><text text-anchor="middle" pointer-events="none" font-size="8px" fill="#000000" x="69.6733516336772" y="3" font-family="Helvetica Neue, Helvetica, Arial, sans-serif">HAS_MAINTENANCE</text></g><g class="relationship" transform="translate(-6.7952818264714026 -246.54942246562877) rotate(235.5976224996623)"><path class="b-outline" fill="#A5ABB6" stroke="none" d="M 25 0.5 L 26.47667560244186 0.5 L 26.47667560244186 -0.5 L 25 -0.5 Z M 111.60167560244186 0.5 L 113.07835120488372 0.5 L 113.07835120488372 3.5 L 120.07835120488372 0 L 113.07835120488372 -3.5 L 113.07835120488372 -0.5 L 111.60167560244186 -0.5 Z"/><text text-anchor="middle" pointer-events="none" font-size="8px" fill="#000000" x="69.03917560244186" y="3" transform="rotate(180 69.03917560244186 0)" font-family="Helvetica Neue, Helvetica, Arial, sans-serif">HAS_MAINTENANCE</text></g><g class="relationship" transform="translate(-218.59829167650543 -312.73969802403315) rotate(239.97815897485577)"><path class="b-outline" fill="#A5ABB6" stroke="none" d="M 25 0.5 L 41.29135274498768 0.5 L 41.29135274498768 -0.5 L 25 -0.5 Z M 96.93588399498768 0.5 L 113.22723673997535 0.5 L 113.22723673997535 3.5 L 120.22723673997535 0 L 113.22723673997535 -3.5 L 113.22723673997535 -0.5 L 96.93588399498768 -0.5 Z"/><text text-anchor="middle" pointer-events="none" font-size="8px" fill="#000000" x="69.11361836998768" y="3" transform="rotate(180 69.11361836998768 0)" font-family="Helvetica Neue, Helvetica, Arial, sans-serif">LOCATED_IN</text></g><g class="relationship" transform="translate(-425.3718860486806 -377.1990134572183) rotate(335.4416242873625)"><path class="b-outline" fill="#A5ABB6" stroke="none" d="M 25 0.5 L 42.403073624220525 0.5 L 42.403073624220525 -0.5 L 25 -0.5 Z M 98.04760487422053 0.5 L 115.45067849844105 0.5 L 115.45067849844105 3.5 L 122.45067849844105 0 L 115.45067849844105 -3.5 L 115.45067849844105 -0.5 L 98.04760487422053 -0.5 Z"/><text text-anchor="middle" pointer-events="none" font-size="8px" fill="#000000" x="70.22533924922053" y="3" font-family="Helvetica Neue, Helvetica, Arial, sans-serif">LOCATED_IN</text></g><g class="relationship" transform="translate(-425.3718860486806 -377.1990134572183) rotate(424.392843152424)"><path class="b-outline" fill="#A5ABB6" stroke="none" d="M 25 0.5 L 25.786119849798993 0.5 L 25.786119849798993 -0.5 L 25 -0.5 Z M 110.911119849799 0.5 L 111.69723969959799 0.5 L 111.69723969959799 3.5 L 118.69723969959799 0 L 111.69723969959799 -3.5 L 111.69723969959799 -0.5 L 110.911119849799 -0.5 Z"/><text text-anchor="middle" pointer-events="none" font-size="8px" fill="#000000" x="68.348619849799" y="3" font-family="Helvetica Neue, Helvetica, Arial, sans-serif">HAS_MAINTENANCE</text></g><g class="relationship" transform="translate(-544.2267560771813 -161.13273423865226) rotate(427.6872223164679)"><path class="b-outline" fill="#A5ABB6" stroke="none" d="M 25 0.5 L 39.485092404604686 0.5 L 39.485092404604686 -0.5 L 25 -0.5 Z M 95.12962365460469 0.5 L 109.61471605920937 0.5 L 109.61471605920937 3.5 L 116.61471605920937 0 L 109.61471605920937 -3.5 L 109.61471605920937 -0.5 L 95.12962365460469 -0.5 Z"/><text text-anchor="middle" pointer-events="none" font-size="8px" fill="#000000" x="67.30735802960469" y="3" font-family="Helvetica Neue, Helvetica, Arial, sans-serif">LOCATED_IN</text></g><g class="relationship" transform="translate(-341.8700907421789 -12.890037500304034) rotate(186.6147713644233)"><path class="b-outline" fill="#A5ABB6" stroke="none" d="M 25 0.5 L 43.471061279413675 0.5 L 43.471061279413675 -0.5 L 25 -0.5 Z M 99.11559252941368 0.5 L 117.58665380882735 0.5 L 117.58665380882735 3.5 L 124.58665380882735 0 L 117.58665380882735 -3.5 L 117.58665380882735 -0.5 L 99.11559252941368 -0.5 Z"/><text text-anchor="middle" pointer-events="none" font-size="8px" fill="#000000" x="71.29332690441368" y="3" transform="rotate(180 71.29332690441368 0)" font-family="Helvetica Neue, Helvetica, Arial, sans-serif">LOCATED_IN</text></g><g class="relationship" transform="translate(-341.8700907421789 -12.890037500304034) rotate(494.65589463406815)"><path class="b-outline" fill="#A5ABB6" stroke="none" d="M 25 0.5 L 26.46684440019422 0.5 L 26.46684440019422 -0.5 L 25 -0.5 Z M 111.59184440019422 0.5 L 113.05868880038844 0.5 L 113.05868880038844 3.5 L 120.05868880038844 0 L 113.05868880038844 -3.5 L 113.05868880038844 -0.5 L 111.59184440019422 -0.5 Z"/><text text-anchor="middle" pointer-events="none" font-size="8px" fill="#000000" x="69.02934440019422" y="3" transform="rotate(180 69.02934440019422 0)" font-family="Helvetica Neue, Helvetica, Arial, sans-serif">HAS_MAINTENANCE</text></g><g class="relationship" transform="translate(-383.0987692602065 236.347559171852) rotate(328.3892025513438)"><path class="b-outline" fill="#A5ABB6" stroke="none" d="M 25 0.5 L 26.839405350675875 0.5 L 26.839405350675875 -0.5 L 25 -0.5 Z M 111.96440535067588 0.5 L 113.80381070135175 0.5 L 113.80381070135175 3.5 L 120.80381070135175 0 L 113.80381070135175 -3.5 L 113.80381070135175 -0.5 L 111.96440535067588 -0.5 Z"/><text text-anchor="middle" pointer-events="none" font-size="8px" fill="#000000" x="69.40190535067588" y="3" font-family="Helvetica Neue, Helvetica, Arial, sans-serif">HAS_MAINTENANCE</text></g><g class="relationship" transform="translate(-381.7993162606088 452.572765987376) rotate(342.5188266650134)"><path class="b-outline" fill="#A5ABB6" stroke="none" d="M 25 0.5 L 40.089211261879626 0.5 L 40.089211261879626 -0.5 L 25 -0.5 Z M 95.73374251187963 0.5 L 110.82295377375925 0.5 L 110.82295377375925 3.5 L 117.82295377375925 0 L 110.82295377375925 -3.5 L 110.82295377375925 -0.5 L 95.73374251187963 -0.5 Z"/><text text-anchor="middle" pointer-events="none" font-size="8px" fill="#000000" x="67.91147688687963" y="3" font-family="Helvetica Neue, Helvetica, Arial, sans-serif">LOCATED_IN</text></g><g class="relationship" transform="translate(-141.61192149826877 303.04760288420556) rotate(494.2758614372557)"><path class="b-outline" fill="#A5ABB6" stroke="none" d="M 25 0.5 L 43.135961945296046 0.5 L 43.135961945296046 -0.5 L 25 -0.5 Z M 98.78049319529605 0.5 L 116.91645514059209 0.5 L 116.91645514059209 3.5 L 123.91645514059209 0 L 116.91645514059209 -3.5 L 116.91645514059209 -0.5 L 98.78049319529605 -0.5 Z"/><text text-anchor="middle" pointer-events="none" font-size="8px" fill="#000000" x="70.95822757029605" y="3" transform="rotate(180 70.95822757029605 0)" font-family="Helvetica Neue, Helvetica, Arial, sans-serif">LOCATED_IN</text></g><g class="relationship" transform="translate(-141.61192149826877 303.04760288420556) rotate(434.3565635384288)"><path class="b-outline" fill="#A5ABB6" stroke="none" d="M 25 0.5 L 26.20842548277902 0.5 L 26.20842548277902 -0.5 L 25 -0.5 Z M 111.33342548277902 0.5 L 112.54185096555804 0.5 L 112.54185096555804 3.5 L 119.54185096555804 0 L 112.54185096555804 -3.5 L 112.54185096555804 -0.5 L 111.33342548277902 -0.5 Z"/><text text-anchor="middle" pointer-events="none" font-size="8px" fill="#000000" x="68.77092548277902" y="3" font-family="Helvetica Neue, Helvetica, Arial, sans-serif">HAS_MAINTENANCE</text></g></g><g class="layer nodes"><g class="node" aria-label="graph-node0" transform="translate(70.8499052272394,336.57589078638165)"><circle class="b-outline" cx="0" cy="0" r="25" fill="#C990C0" stroke="#b261a5" stroke-width="2px"/><text class="caption" text-anchor="middle" pointer-events="none" x="0" y="5" font-size="10px" fill="#FFFFFF" font-family="Helvetica Neue, Helvetica, Arial, sans-serif"> A12345</text></g><g class="node" aria-label="graph-node1" transform="translate(73.28638830106652,481.6534959948233)"><circle class="b-outline" cx="0" cy="0" r="25" fill="#F79767" stroke="#f36924" stroke-width="2px"/><text class="caption" text-anchor="middle" pointer-events="none" x="0" y="5" font-size="10px" fill="#FFFFFF" font-family="Helvetica Neue, Helvetica, Arial, sans-serif"> 2</text></g><g class="node" aria-label="graph-node2" transform="translate(83.28058210683831,192.68944337384076)"><circle class="b-outline" cx="0" cy="0" r="25" fill="#57C7E3" stroke="#23b3d7" stroke-width="2px"/><text class="caption" text-anchor="middle" pointer-events="none" x="0" y="5" font-size="10px" fill="#2A2C34" font-family="Helvetica Neue, Helvetica, Arial, sans-serif"> Preventi…</text></g><g class="node" aria-label="graph-node3" transform="translate(287.52728397302445,516.7018662463755)"><circle class="b-outline" cx="0" cy="0" r="25" fill="#C990C0" stroke="#b261a5" stroke-width="2px"/><text class="caption" text-anchor="middle" pointer-events="none" x="0" y="5" font-size="10px" fill="#FFFFFF" font-family="Helvetica Neue, Helvetica, Arial, sans-serif"> MC20234</text></g><g class="node" aria-label="graph-node5" transform="translate(281.2364741739449,374.7553673116881)"><circle class="b-outline" cx="0" cy="0" r="25" fill="#F79767" stroke="#f36924" stroke-width="2px"/><text class="caption" text-anchor="middle" pointer-events="none" x="0" y="5" font-size="10px" fill="#FFFFFF" font-family="Helvetica Neue, Helvetica, Arial, sans-serif"> 3</text></g><g class="node" aria-label="graph-node4" transform="translate(445.7571736288536,275.06462053866244)"><circle class="b-outline" cx="0" cy="0" r="25" fill="#C990C0" stroke="#b261a5" stroke-width="2px"/><text class="caption" text-anchor="middle" pointer-events="none" x="0" y="5" font-size="10px" fill="#FFFFFF" font-family="Helvetica Neue, Helvetica, Arial, sans-serif"> BI30234</text></g><g class="node" aria-label="graph-node6" transform="translate(568.0115967537969,201.40752956167762)"><circle class="b-outline" cx="0" cy="0" r="25" fill="#57C7E3" stroke="#23b3d7" stroke-width="2px"/><text class="caption" text-anchor="middle" pointer-events="none" x="0" y="5" font-size="10px" fill="#2A2C34" font-family="Helvetica Neue, Helvetica, Arial, sans-serif"> Corretiva</text></g><g class="node" aria-label="graph-node7" transform="translate(306.5863961114761,80.16491310144849)"><circle class="b-outline" cx="0" cy="0" r="25" fill="#C990C0" stroke="#b261a5" stroke-width="2px"/><text class="caption" text-anchor="middle" pointer-events="none" x="0" y="5" font-size="10px" fill="#FFFFFF" font-family="Helvetica Neue, Helvetica, Arial, sans-serif"> ECG543…</text></g><g class="node" aria-label="graph-node10" transform="translate(444.9924009927184,50.573993066411816)"><circle class="b-outline" cx="0" cy="0" r="25" fill="#F79767" stroke="#f36924" stroke-width="2px"/><text class="caption" text-anchor="middle" pointer-events="none" x="0" y="5" font-size="10px" fill="#FFFFFF" font-family="Helvetica Neue, Helvetica, Arial, sans-serif"> 1</text></g><g class="node" aria-label="graph-node11" transform="translate(404.0546175224288,-40.252948393918416)"><circle class="b-outline" cx="0" cy="0" r="25" fill="#57C7E3" stroke="#23b3d7" stroke-width="2px"/><text class="caption" text-anchor="middle" pointer-events="none" x="0" y="5" font-size="10px" fill="#2A2C34" font-family="Helvetica Neue, Helvetica, Arial, sans-serif"> Preventi…</text></g><g class="node" aria-label="graph-node8" transform="translate(306.8741618880595,-19.461189759064474)"><circle class="b-outline" cx="0" cy="0" r="25" fill="#C990C0" stroke="#b261a5" stroke-width="2px"/><text class="caption" text-anchor="middle" pointer-events="none" x="0" y="5" font-size="10px" fill="#FFFFFF" font-family="Helvetica Neue, Helvetica, Arial, sans-serif"> V78910</text></g><g class="node" aria-label="graph-node9" transform="translate(484.72184074211697,-268.4453784820476)"><circle class="b-outline" cx="0" cy="0" r="25" fill="#C990C0" stroke="#b261a5" stroke-width="2px"/><text class="caption" text-anchor="middle" pointer-events="none" x="0" y="5" font-size="10px" fill="#FFFFFF" font-family="Helvetica Neue, Helvetica, Arial, sans-serif"> MC98765</text></g><g class="node" aria-label="graph-node12" transform="translate(415.79863199511345,-392.768727167727)"><circle class="b-outline" cx="0" cy="0" r="25" fill="#57C7E3" stroke="#23b3d7" stroke-width="2px"/><text class="caption" text-anchor="middle" pointer-events="none" x="0" y="5" font-size="10px" fill="#2A2C34" font-family="Helvetica Neue, Helvetica, Arial, sans-serif"> Corretiva</text></g><g class="node" aria-label="graph-node13" transform="translate(201.29410245142276,-272.66999698077194)"><circle class="b-outline" cx="0" cy="0" r="25" fill="#C990C0" stroke="#b261a5" stroke-width="2px"/><text class="caption" text-anchor="middle" pointer-events="none" x="0" y="5" font-size="10px" fill="#FFFFFF" font-family="Helvetica Neue, Helvetica, Arial, sans-serif"> OX89012</text></g><g class="node" aria-label="graph-node16" transform="translate(222.55594222696934,-415.37505335379)"><circle class="b-outline" cx="0" cy="0" r="25" fill="#F79767" stroke="#f36924" stroke-width="2px"/><text class="caption" text-anchor="middle" pointer-events="none" x="0" y="5" font-size="10px" fill="#FFFFFF" font-family="Helvetica Neue, Helvetica, Arial, sans-serif"> 2</text></g><g class="node" aria-label="graph-node14" transform="translate(165.49244384206418,-547.069372519696)"><circle class="b-outline" cx="0" cy="0" r="25" fill="#C990C0" stroke="#b261a5" stroke-width="2px"/><text class="caption" text-anchor="middle" pointer-events="none" x="0" y="5" font-size="10px" fill="#FFFFFF" font-family="Helvetica Neue, Helvetica, Arial, sans-serif"> V12389</text></g><g class="node" aria-label="graph-node15" transform="translate(-6.7952818264714026,-246.54942246562877)"><circle class="b-outline" cx="0" cy="0" r="25" fill="#C990C0" stroke="#b261a5" stroke-width="2px"/><text class="caption" text-anchor="middle" pointer-events="none" x="0" y="5" font-size="10px" fill="#FFFFFF" font-family="Helvetica Neue, Helvetica, Arial, sans-serif"> BI45678</text></g><g class="node" aria-label="graph-node17" transform="translate(21.826923976105302,-390.06989798120816)"><circle class="b-outline" cx="0" cy="0" r="25" fill="#57C7E3" stroke="#23b3d7" stroke-width="2px"/><text class="caption" text-anchor="middle" pointer-events="none" x="0" y="5" font-size="10px" fill="#2A2C34" font-family="Helvetica Neue, Helvetica, Arial, sans-serif"> Corretiva</text></g><g class="node" aria-label="graph-node18" transform="translate(-88.7647303278242,-366.2521271164079)"><circle class="b-outline" cx="0" cy="0" r="25" fill="#57C7E3" stroke="#23b3d7" stroke-width="2px"/><text class="caption" text-anchor="middle" pointer-events="none" x="0" y="5" font-size="10px" fill="#2A2C34" font-family="Helvetica Neue, Helvetica, Arial, sans-serif"> Preventi…</text></g><g class="node" aria-label="graph-node19" transform="translate(-218.59829167650543,-312.73969802403315)"><circle class="b-outline" cx="0" cy="0" r="25" fill="#C990C0" stroke="#b261a5" stroke-width="2px"/><text class="caption" text-anchor="middle" pointer-events="none" x="0" y="5" font-size="10px" fill="#FFFFFF" font-family="Helvetica Neue, Helvetica, Arial, sans-serif"> MC12390</text></g><g class="node" aria-label="graph-node21" transform="translate(-291.25984819850845,-438.48248507334506)"><circle class="b-outline" cx="0" cy="0" r="25" fill="#F79767" stroke="#f36924" stroke-width="2px"/><text class="caption" text-anchor="middle" pointer-events="none" x="0" y="5" font-size="10px" fill="#FFFFFF" font-family="Helvetica Neue, Helvetica, Arial, sans-serif"> 3</text></g><g class="node" aria-label="graph-node20" transform="translate(-425.3718860486806,-377.1990134572183)"><circle class="b-outline" cx="0" cy="0" r="25" fill="#C990C0" stroke="#b261a5" stroke-width="2px"/><text class="caption" text-anchor="middle" pointer-events="none" x="0" y="5" font-size="10px" fill="#FFFFFF" font-family="Helvetica Neue, Helvetica, Arial, sans-serif"> BI23456</text></g><g class="node" aria-label="graph-node22" transform="translate(-363.2661698524835,-247.61592538998192)"><circle class="b-outline" cx="0" cy="0" r="25" fill="#57C7E3" stroke="#23b3d7" stroke-width="2px"/><text class="caption" text-anchor="middle" pointer-events="none" x="0" y="5" font-size="10px" fill="#2A2C34" font-family="Helvetica Neue, Helvetica, Arial, sans-serif"> Preventi…</text></g><g class="node" aria-label="graph-node23" transform="translate(-544.2267560771813,-161.13273423865226)"><circle class="b-outline" cx="0" cy="0" r="25" fill="#C990C0" stroke="#b261a5" stroke-width="2px"/><text class="caption" text-anchor="middle" pointer-events="none" x="0" y="5" font-size="10px" fill="#FFFFFF" font-family="Helvetica Neue, Helvetica, Arial, sans-serif"> ECG567…</text></g><g class="node" aria-label="graph-node26" transform="translate(-490.4609612693743,-30.121409868522758)"><circle class="b-outline" cx="0" cy="0" r="25" fill="#F79767" stroke="#f36924" stroke-width="2px"/><text class="caption" text-anchor="middle" pointer-events="none" x="0" y="5" font-size="10px" fill="#FFFFFF" font-family="Helvetica Neue, Helvetica, Arial, sans-serif"> 4</text></g><g class="node" aria-label="graph-node24" transform="translate(-341.8700907421789,-12.890037500304034)"><circle class="b-outline" cx="0" cy="0" r="25" fill="#C990C0" stroke="#b261a5" stroke-width="2px"/><text class="caption" text-anchor="middle" pointer-events="none" x="0" y="5" font-size="10px" fill="#FFFFFF" font-family="Helvetica Neue, Helvetica, Arial, sans-serif"> V54321</text></g><g class="node" aria-label="graph-node27" transform="translate(-443.82420322181565,90.29611537389468)"><circle class="b-outline" cx="0" cy="0" r="25" fill="#57C7E3" stroke="#23b3d7" stroke-width="2px"/><text class="caption" text-anchor="middle" pointer-events="none" x="0" y="5" font-size="10px" fill="#2A2C34" font-family="Helvetica Neue, Helvetica, Arial, sans-serif"> Corretiva</text></g><g class="node" aria-label="graph-node25" transform="translate(-383.0987692602065,236.347559171852)"><circle class="b-outline" cx="0" cy="0" r="25" fill="#C990C0" stroke="#b261a5" stroke-width="2px"/><text class="caption" text-anchor="middle" pointer-events="none" x="0" y="5" font-size="10px" fill="#FFFFFF" font-family="Helvetica Neue, Helvetica, Arial, sans-serif"> MC56789</text></g><g class="node" aria-label="graph-node28" transform="translate(-258.9281362871877,159.9250158870628)"><circle class="b-outline" cx="0" cy="0" r="25" fill="#57C7E3" stroke="#23b3d7" stroke-width="2px"/><text class="caption" text-anchor="middle" pointer-events="none" x="0" y="5" font-size="10px" fill="#2A2C34" font-family="Helvetica Neue, Helvetica, Arial, sans-serif"> Preventi…</text></g><g class="node" aria-label="graph-node29" transform="translate(-381.7993162606088,452.572765987376)"><circle class="b-outline" cx="0" cy="0" r="25" fill="#C990C0" stroke="#b261a5" stroke-width="2px"/><text class="caption" text-anchor="middle" pointer-events="none" x="0" y="5" font-size="10px" fill="#FFFFFF" font-family="Helvetica Neue, Helvetica, Arial, sans-serif"> BI78901</text></g><g class="node" aria-label="graph-node31" transform="translate(-245.57253957900755,409.6698355559647)"><circle class="b-outline" cx="0" cy="0" r="25" fill="#F79767" stroke="#f36924" stroke-width="2px"/><text class="caption" text-anchor="middle" pointer-events="none" x="0" y="5" font-size="10px" fill="#FFFFFF" font-family="Helvetica Neue, Helvetica, Arial, sans-serif"> 5</text></g><g class="node" aria-label="graph-node30" transform="translate(-141.61192149826877,303.04760288420556)"><circle class="b-outline" cx="0" cy="0" r="25" fill="#C990C0" stroke="#b261a5" stroke-width="2px"/><text class="caption" text-anchor="middle" pointer-events="none" x="0" y="5" font-size="10px" fill="#FFFFFF" font-family="Helvetica Neue, Helvetica, Arial, sans-serif"> OX67890</text></g><g class="node" aria-label="graph-node32" transform="translate(-102.6362221194492,442.23539523138476)"><circle class="b-outline" cx="0" cy="0" r="25" fill="#57C7E3" stroke="#23b3d7" stroke-width="2px"/><text class="caption" text-anchor="middle" pointer-events="none" x="0" y="5" font-size="10px" fill="#2A2C34" font-family="Helvetica Neue, Helvetica, Arial, sans-serif"> Corretiva</text></g></g></svg>